<svg xmlns="http://www.w3.org/2000/svg" viewBox="0 0 32 32" width="32" height="32">
  <rect width="32" height="32" rx="6" fill="#0D1B3E"/>
  <path d="M7 5 L7 23 L18 23 C22 23 25 20 25 17 C25 15 24 13 22 12 C24 11 25 9 25 7 C25 5 23 4 18 4 Z
           M10 7 L17 7 C19 7 21 8 21 10 C21 12 19 13 17 13 L10 13 Z
           M10 17 L18 17 C20 17 21 18 21 20 C21 22 20 23 18 23 L10 23 Z" fill="white"/>
  <polygon points="16,6 12,14 15,14 11,22 19,13 16,13 19,6" fill="#1D9E75"/>
  <polyline points="3,28 6,28 7,26 9,30 10,27 12,28 29,28" stroke="#1D9E75" stroke-width="1.5" fill="none" stroke-linecap="round" stroke-linejoin="round"/>
</svg>