<svg xmlns="http://www.w3.org/2000/svg" viewBox="0 0 320 120" width="320" height="120">
  <rect width="320" height="120" fill="white"/>
  <g transform="translate(16, 16)">
    <rect width="88" height="88" rx="14" fill="#0D1B3E"/>
    <path d="M22 18 L22 70 L52 70 C62 70 70 63 70 54 C70 48 67 43 62 40 C66 37 68 33 68 28 C68 20 61 18 52 18 Z
             M32 28 L50 28 C55 28 58 31 58 35 C58 39 55 42 50 42 L32 42 Z
             M32 52 L52 52 C58 52 60 55 60 59 C60 63 57 66 52 66 L32 66 Z" fill="white"/>
    <polygon points="47,24 38,44 46,44 39,66 56,40 47,40 54,24" fill="#1D9E75"/>
    <polyline points="8,78 18,78 22,68 27,88 32,72 37,78 80,78" stroke="#1D9E75" stroke-width="3" fill="none" stroke-linecap="round" stroke-linejoin="round"/>
  </g>
  <text x="118" y="52" font-family="'Poppins', Arial, sans-serif" font-weight="700" font-size="22" letter-spacing="2" fill="#0D1B3E">BLITORA</text>
  <text x="118" y="78" font-family="'Poppins', Arial, sans-serif" font-weight="700" font-size="22" letter-spacing="2" fill="#1D9E75">PULSE</text>
  <text x="118" y="98" font-family="'Poppins', Arial, sans-serif" font-weight="400" font-size="11" fill="#1D9E75">Health Made Intelligent.</text>
</svg>